<svg width="1464" height="316" viewBox="0 0 1464 316" fill="none" xmlns="http://www.w3.org/2000/svg">
<path d="M402.873 122.873C389.659 136.087 381.739 153.682 380.607 172.335C379.476 190.989 385.211 209.411 396.732 224.126C408.252 238.84 424.76 248.829 443.14 252.207C461.52 255.585 480.501 252.118 496.5 242.46C512.499 232.803 524.41 217.623 529.984 199.786C535.559 181.949 534.411 162.688 526.758 145.639C519.105 128.59 505.477 114.932 488.444 107.243C471.411 99.5534 452.153 98.3645 434.304 103.901L440.918 125.223C453.558 121.303 467.196 122.145 479.258 127.59C491.32 133.036 500.972 142.708 506.391 154.782C511.811 166.855 512.623 180.495 508.676 193.127C504.728 205.759 496.293 216.508 484.963 223.347C473.633 230.187 460.191 232.642 447.175 230.25C434.159 227.858 422.468 220.784 414.31 210.364C406.152 199.943 402.09 186.897 402.891 173.687C403.692 160.477 409.301 148.017 418.659 138.659L402.873 122.873Z" fill="#323232"/>
<circle cx="456.967" cy="176.967" r="41.5" fill="#FF4C24"/>
<path fill-rule="evenodd" clip-rule="evenodd" d="M410.644 84.0166L448.403 152.777C449.515 154.807 451.843 155.858 454.1 155.343C457.591 154.607 461.167 156.155 463.022 159.202L479.075 185.67C479.883 187.006 479.459 188.744 478.127 189.553C476.79 190.365 475.052 189.941 474.244 188.605L459.657 164.576L459.653 164.575C458.844 163.244 457.106 162.819 455.77 163.627C454.437 164.441 454.013 166.179 454.822 167.511L469.422 191.542C470.234 192.88 469.81 194.617 468.474 195.426C467.141 196.239 465.403 195.815 464.591 194.477L449.99 170.446C449.181 169.114 447.443 168.69 446.107 169.498C444.774 170.311 444.35 172.049 445.159 173.381L459.762 197.404C460.575 198.737 460.151 200.475 458.814 201.287C457.482 202.096 455.744 201.672 454.931 200.339L438.838 173.895C436.994 170.841 437.271 166.959 439.533 164.201C441.03 162.435 441.175 159.885 439.881 157.962L396.247 92.7635C394.986 90.8715 394.573 88.5388 395.099 86.3296C395.624 84.1205 397.046 82.2267 399.019 81.1057C400.923 79.8714 403.259 79.4819 405.462 80.0335C407.665 80.585 409.545 82.0263 410.644 84.0166Z" fill="#323232"/>
<path d="M1135.26 110.582C1172.3 90.2551 1218.8 103.803 1239.13 140.842C1259.46 177.881 1245.91 224.385 1208.87 244.711C1171.83 265.038 1125.33 251.49 1105 214.451C1084.67 177.412 1098.22 130.908 1135.26 110.582ZM1198.13 225.14C1224.36 210.745 1233.95 177.812 1219.56 151.583C1205.16 125.353 1172.23 115.758 1146 130.153C1119.77 144.548 1110.18 177.48 1124.57 203.71C1138.97 229.94 1171.9 239.535 1198.13 225.14Z" fill="#323232"/>
<circle cx="1172.07" cy="177.647" r="41.5" transform="rotate(-118.757 1172.07 177.647)" fill="#FF4C24"/>
<path d="M1218.7 77.6184C1219.8 75.4805 1221.67 73.9227 1223.97 73.2377C1226.28 72.5574 1228.69 72.8384 1230.78 74.0376C1232.86 75.2385 1234.33 77.183 1234.9 79.5152C1235.48 81.8455 1235.08 84.2544 1233.79 86.2801L1203.61 133.574C1202 132.39 1200.32 131.279 1198.56 130.273C1196.78 129.251 1194.96 128.356 1193.12 127.563L1218.7 77.6184Z" fill="#323232"/>
<path d="M142.417 85.124C146.787 87.3085 149.307 90.7534 149.979 95.4587C150.82 100.164 149.643 104.449 146.45 108.314C144.266 111.339 141.409 113.019 137.88 113.355C134.519 113.691 131.074 113.019 127.545 111.339C123.512 109.49 119.227 108.062 114.69 107.054C110.321 106.045 105.7 105.541 100.826 105.541C91.7521 105.541 83.6019 106.97 76.376 109.826C69.3182 112.683 63.2686 116.8 58.2273 122.178C53.186 127.387 49.3209 133.605 46.6322 140.831C44.1116 148.056 42.8512 156.039 42.8512 164.777C42.8512 175.028 44.2796 183.934 47.1364 191.496C50.1612 199.058 54.2782 205.36 59.4876 210.401C64.697 215.442 70.8306 219.223 77.8884 221.744C84.9463 224.096 92.5923 225.273 100.826 225.273C105.364 225.273 109.901 224.853 114.438 224.012C118.975 223.172 123.344 221.66 127.545 219.475C131.074 217.795 134.519 217.207 137.88 217.711C141.409 218.215 144.35 219.979 146.702 223.004C150.063 227.205 151.24 231.574 150.231 236.112C149.391 240.481 146.871 243.674 142.669 245.69C138.3 247.875 133.763 249.723 129.058 251.236C124.521 252.58 119.899 253.588 115.194 254.26C110.489 255.101 105.7 255.521 100.826 255.521C88.7273 255.521 77.2163 253.588 66.2934 249.723C55.5386 245.858 45.876 240.145 37.3058 232.583C28.9036 225.021 22.2658 215.61 17.3926 204.351C12.5193 192.924 10.0826 179.733 10.0826 164.777C10.0826 151.837 12.2672 139.906 16.6364 128.983C21.1736 118.061 27.4752 108.65 35.5413 100.752C43.7755 92.6859 53.438 86.4683 64.5289 82.0992C75.6198 77.562 87.719 75.2934 100.826 75.2934C108.22 75.2934 115.446 76.1336 122.504 77.814C129.562 79.4945 136.2 81.9311 142.417 85.124ZM290.62 115.624C302.72 115.624 311.878 118.229 318.096 123.438C324.481 128.647 328.85 135.621 331.203 144.359C333.556 152.93 334.732 162.508 334.732 173.095V237.624C334.732 241.993 333.304 245.69 330.447 248.715C327.59 251.572 323.977 253 319.608 253C315.239 253 311.626 251.572 308.769 248.715C305.912 245.69 304.484 241.993 304.484 237.624V173.095C304.484 167.55 303.812 162.592 302.468 158.223C301.123 153.686 298.687 150.073 295.158 147.384C291.629 144.696 286.587 143.351 280.034 143.351C273.648 143.351 268.187 144.696 263.649 147.384C259.112 150.073 255.667 153.686 253.315 158.223C251.13 162.592 250.038 167.55 250.038 173.095V237.624C250.038 241.993 248.609 245.69 245.753 248.715C242.896 251.572 239.283 253 234.914 253C230.545 253 226.932 251.572 224.075 248.715C221.218 245.69 219.79 241.993 219.79 237.624V81.8471C219.79 77.478 221.218 73.865 224.075 71.0082C226.932 67.9835 230.545 66.4711 234.914 66.4711C239.283 66.4711 242.896 67.9835 245.753 71.0082C248.609 73.865 250.038 77.478 250.038 81.8471V144.359L246.257 143.603C247.769 140.747 249.87 137.722 252.558 134.529C255.247 131.168 258.524 128.059 262.389 125.202C266.254 122.346 270.539 120.077 275.244 118.397C279.95 116.548 285.075 115.624 290.62 115.624Z" fill="#323232"/>
<path d="M721.657 118.145C725.522 118.145 728.883 119.657 731.74 122.682C734.596 125.539 736.025 129.236 736.025 133.773C736.025 134.949 735.941 136.041 735.773 137.05C735.605 137.89 735.353 138.73 735.017 139.57L696.45 243.421C695.274 246.782 693.174 249.387 690.149 251.236C687.124 252.916 683.931 253.504 680.57 253C674.857 252.664 670.572 249.471 667.715 243.421L642.76 171.583L649.314 171.835L625.872 243.421C623.015 249.471 618.73 252.664 613.017 253C609.824 253.504 606.631 252.916 603.438 251.236C600.413 249.387 598.313 246.782 597.136 243.421L558.57 139.57C557.898 137.722 557.562 135.789 557.562 133.773C557.562 129.74 558.906 126.127 561.595 122.934C564.284 119.741 567.981 118.145 572.686 118.145C575.879 118.145 578.736 118.901 581.256 120.413C583.777 121.926 585.541 124.362 586.55 127.723L617.05 210.401L610.748 209.897L633.686 147.636C636.375 141.419 640.996 138.31 647.55 138.31C651.247 138.31 654.019 139.15 655.868 140.831C657.884 142.343 659.481 144.612 660.657 147.636L683.595 209.897L676.033 210.905L707.037 127.723C709.054 121.337 713.927 118.145 721.657 118.145Z" fill="#323232"/>
<path d="M1441.66 118.145C1445.52 118.145 1448.88 119.657 1451.74 122.682C1454.6 125.539 1456.02 129.236 1456.02 133.773C1456.02 134.949 1455.94 136.041 1455.77 137.05C1455.6 137.89 1455.35 138.73 1455.02 139.57L1416.45 243.421C1415.27 246.782 1413.17 249.387 1410.15 251.236C1407.12 252.916 1403.93 253.504 1400.57 253C1394.86 252.664 1390.57 249.471 1387.71 243.421L1362.76 171.583L1369.31 171.835L1345.87 243.421C1343.02 249.471 1338.73 252.664 1333.02 253C1329.82 253.504 1326.63 252.916 1323.44 251.236C1320.41 249.387 1318.31 246.782 1317.14 243.421L1278.57 139.57C1277.9 137.722 1277.56 135.789 1277.56 133.773C1277.56 129.74 1278.91 126.127 1281.6 122.934C1284.28 119.741 1287.98 118.145 1292.69 118.145C1295.88 118.145 1298.74 118.901 1301.26 120.413C1303.78 121.926 1305.54 124.362 1306.55 127.723L1337.05 210.401L1330.75 209.897L1353.69 147.636C1356.37 141.419 1361 138.31 1367.55 138.31C1371.25 138.31 1374.02 139.15 1375.87 140.831C1377.88 142.343 1379.48 144.612 1380.66 147.636L1403.6 209.897L1396.03 210.905L1427.04 127.723C1429.05 121.337 1433.93 118.145 1441.66 118.145Z" fill="#323232"/>
<path d="M872.785 252C868.08 252 864.215 250.572 861.19 247.715C858.333 244.69 856.905 240.993 856.905 236.624V90.9297C856.905 86.5606 858.333 82.9477 861.19 80.0909C864.215 77.0661 867.912 75.5537 872.281 75.5537H954.202C958.572 75.5537 962.185 76.9821 965.041 79.8388C968.066 82.5275 969.579 86.0565 969.579 90.4256C969.579 94.1226 968.066 97.3994 965.041 100.256C962.185 103.113 958.572 104.541 954.202 104.541H886.145L888.413 101.517V152.182L886.649 148.905H942.86C947.229 148.905 950.842 150.333 953.698 153.19C956.723 155.879 958.236 159.408 958.236 163.777C958.236 167.474 956.723 170.751 953.698 173.607C950.842 176.464 947.229 177.893 942.86 177.893H886.145L888.413 175.624V236.624C888.413 240.993 886.817 244.69 883.624 247.715C880.599 250.572 876.986 252 872.785 252ZM1053.9 236.624C1053.9 240.993 1052.39 244.69 1049.36 247.715C1046.51 250.572 1042.89 252 1038.52 252C1034.32 252 1030.79 250.572 1027.94 247.715C1025.08 244.69 1023.65 240.993 1023.65 236.624V80.8471C1023.65 76.478 1025.08 72.865 1027.94 70.0082C1030.96 66.9835 1034.66 65.4711 1039.03 65.4711C1043.4 65.4711 1046.93 66.9835 1049.62 70.0082C1052.47 72.865 1053.9 76.478 1053.9 80.8471V236.624Z" fill="#323232"/>
</svg>
