<svg width="1461" height="316" viewBox="0 0 1461 316" fill="none" xmlns="http://www.w3.org/2000/svg">
<path d="M402.873 122.873C389.659 136.087 381.739 153.682 380.607 172.335C379.476 190.989 385.211 209.411 396.732 224.126C408.252 238.84 424.76 248.829 443.14 252.207C461.52 255.585 480.501 252.118 496.5 242.46C512.499 232.803 524.41 217.623 529.984 199.786C535.559 181.949 534.411 162.688 526.758 145.639C519.105 128.59 505.477 114.932 488.444 107.243C471.411 99.5534 452.153 98.3645 434.304 103.901L440.918 125.223C453.558 121.303 467.196 122.145 479.258 127.59C491.32 133.036 500.972 142.708 506.391 154.782C511.811 166.855 512.623 180.495 508.676 193.127C504.728 205.759 496.293 216.508 484.963 223.347C473.633 230.187 460.191 232.642 447.175 230.25C434.159 227.858 422.468 220.784 414.31 210.364C406.152 199.943 402.09 186.897 402.891 173.687C403.692 160.477 409.301 148.017 418.659 138.659L402.873 122.873Z" fill="#FF4C24"/>
<circle cx="456.967" cy="176.967" r="41.5" fill="white"/>
<path fill-rule="evenodd" clip-rule="evenodd" d="M410.644 84.0166L448.403 152.777C449.515 154.807 451.843 155.858 454.1 155.343C457.591 154.607 461.167 156.155 463.022 159.202L479.075 185.67C479.883 187.006 479.459 188.744 478.127 189.553C476.79 190.365 475.052 189.941 474.244 188.605L459.657 164.576L459.653 164.575C458.844 163.244 457.106 162.819 455.77 163.627C454.437 164.441 454.013 166.179 454.822 167.511L469.422 191.542C470.234 192.88 469.81 194.617 468.474 195.426C467.141 196.239 465.403 195.815 464.591 194.478L449.99 170.446C449.181 169.114 447.443 168.69 446.107 169.498C444.774 170.311 444.35 172.049 445.159 173.381L459.762 197.404C460.575 198.737 460.151 200.474 458.814 201.287C457.482 202.096 455.744 201.672 454.931 200.339L438.838 173.895C436.994 170.841 437.271 166.959 439.533 164.201C441.03 162.435 441.175 159.885 439.881 157.962L396.247 92.7635C394.986 90.8715 394.573 88.5388 395.099 86.3296C395.624 84.1205 397.046 82.2267 399.019 81.1057C400.923 79.8714 403.259 79.4819 405.462 80.0335C407.665 80.585 409.545 82.0263 410.644 84.0166Z" fill="#FF4C24"/>
<path d="M1135.26 110.582C1172.3 90.2551 1218.8 103.803 1239.13 140.842C1259.46 177.881 1245.91 224.385 1208.87 244.711C1171.83 265.038 1125.33 251.49 1105 214.451C1084.67 177.412 1098.22 130.908 1135.26 110.582ZM1198.13 225.14C1224.36 210.745 1233.95 177.812 1219.56 151.583C1205.16 125.353 1172.23 115.758 1146 130.153C1119.77 144.548 1110.18 177.48 1124.57 203.71C1138.97 229.94 1171.9 239.535 1198.13 225.14Z" fill="#FF4C24"/>
<circle cx="1172.07" cy="177.647" r="41.5" transform="rotate(-118.757 1172.07 177.647)" fill="white"/>
<path d="M1218.7 77.6184C1219.8 75.4805 1221.67 73.9227 1223.97 73.2377C1226.28 72.5574 1228.69 72.8384 1230.78 74.0376C1232.86 75.2385 1234.33 77.183 1234.9 79.5152C1235.48 81.8455 1235.08 84.2544 1233.79 86.2801L1203.61 133.574C1202 132.39 1200.32 131.279 1198.56 130.273C1196.78 129.251 1194.96 128.356 1193.12 127.563L1218.7 77.6184Z" fill="#FF4C24"/>
<path d="M149.223 88.1487C152.08 89.6611 153.676 91.9297 154.012 94.9545C154.517 97.9793 153.76 100.752 151.744 103.273C150.231 105.457 148.299 106.634 145.946 106.802C143.594 106.97 141.241 106.466 138.888 105.289C133.343 101.928 127.377 99.3237 120.992 97.4752C114.606 95.4587 107.884 94.4504 100.826 94.4504C90.9118 94.4504 81.8375 96.2149 73.6033 99.7438C65.3692 103.105 58.2273 107.894 52.1777 114.112C46.1281 120.329 41.4229 127.723 38.062 136.293C34.7011 144.864 33.0207 154.358 33.0207 164.777C33.0207 175.868 34.7851 185.782 38.3141 194.521C41.843 203.259 46.6322 210.737 52.6818 216.955C58.8995 223.004 66.0413 227.625 74.1074 230.818C82.3416 234.011 91.2479 235.607 100.826 235.607C107.716 235.607 114.354 234.683 120.74 232.835C127.125 230.986 133.175 228.298 138.888 224.769C141.241 223.592 143.594 223.172 145.946 223.508C148.299 223.844 150.315 225.021 151.996 227.037C154.012 229.726 154.769 232.583 154.264 235.607C153.76 238.464 152.164 240.565 149.475 241.909C145.274 244.43 140.485 246.782 135.107 248.967C129.73 250.983 124.101 252.58 118.219 253.756C112.506 254.933 106.708 255.521 100.826 255.521C88.7273 255.521 77.3003 253.42 66.5455 249.219C55.7906 245.018 46.2961 238.968 38.062 231.07C29.8278 223.172 23.2741 213.678 18.4008 202.587C13.6956 191.328 11.343 178.725 11.343 164.777C11.343 151.669 13.6116 139.654 18.1488 128.731C22.686 117.809 28.9876 108.314 37.0537 100.248C45.2879 92.1818 54.7824 85.8802 65.5372 81.343C76.4601 76.8058 88.2231 74.5372 100.826 74.5372C109.565 74.5372 118.051 75.7135 126.285 78.0661C134.687 80.4187 142.333 83.7796 149.223 88.1487ZM289.506 120.665C300.597 120.665 309.335 123.102 315.721 127.975C322.274 132.68 326.896 139.066 329.584 147.132C332.441 155.03 333.869 163.853 333.869 173.599V242.665C333.869 245.522 332.861 247.959 330.845 249.975C328.996 251.992 326.644 253 323.787 253C320.93 253 318.493 251.992 316.477 249.975C314.628 247.959 313.704 245.522 313.704 242.665V173.599C313.704 167.213 312.78 161.5 310.931 156.459C309.083 151.249 305.974 147.132 301.605 144.107C297.404 140.915 291.606 139.318 284.212 139.318C277.323 139.318 271.021 140.915 265.307 144.107C259.594 147.132 255.057 151.249 251.696 156.459C248.335 161.5 246.655 167.213 246.655 173.599V242.665C246.655 245.522 245.646 247.959 243.63 249.975C241.781 251.992 239.429 253 236.572 253C233.715 253 231.279 251.992 229.262 249.975C227.414 247.959 226.489 245.522 226.489 242.665V76.5537C226.489 73.697 227.414 71.3443 229.262 69.4959C231.279 67.4793 233.715 66.4711 236.572 66.4711C239.597 66.4711 242.033 67.4793 243.882 69.4959C245.73 71.3443 246.655 73.697 246.655 76.5537V151.921L241.613 157.467C242.453 153.098 244.302 148.729 247.159 144.359C250.015 139.822 253.628 135.789 257.998 132.26C262.367 128.731 267.24 125.959 272.617 123.942C277.995 121.758 283.624 120.665 289.506 120.665Z" fill="#FF4C24"/>
<path d="M722.413 120.413C725.102 120.413 727.371 121.337 729.219 123.186C731.236 125.034 732.244 127.471 732.244 130.496C732.244 131.168 732.16 131.924 731.992 132.764C731.992 133.437 731.824 134.109 731.488 134.781L692.669 246.446C691.829 248.631 690.401 250.311 688.384 251.488C686.536 252.664 684.519 253.168 682.335 253C678.47 252.832 675.529 250.647 673.512 246.446L641.752 166.793L646.793 167.55L618.058 246.446C616.209 250.647 613.269 252.832 609.236 253C607.051 253.168 604.95 252.664 602.934 251.488C600.917 250.311 599.573 248.631 598.901 246.446L559.326 134.781C558.822 133.269 558.57 131.84 558.57 130.496C558.57 127.807 559.494 125.455 561.343 123.438C563.191 121.421 565.712 120.413 568.905 120.413C570.921 120.413 572.77 120.917 574.45 121.926C576.131 122.934 577.307 124.53 577.979 126.715L612.008 226.029L606.715 225.777L636.207 150.157C637.887 145.956 640.996 143.855 645.533 143.855C647.886 143.855 649.734 144.444 651.079 145.62C652.591 146.628 653.683 148.14 654.355 150.157L685.107 225.777L678.806 226.281L712.835 126.715C714.347 122.514 717.54 120.413 722.413 120.413Z" fill="#FF4C24"/>
<path d="M1442.41 120.413C1445.1 120.413 1447.37 121.337 1449.22 123.186C1451.24 125.034 1452.24 127.471 1452.24 130.496C1452.24 131.168 1452.16 131.924 1451.99 132.764C1451.99 133.437 1451.82 134.109 1451.49 134.781L1412.67 246.446C1411.83 248.631 1410.4 250.311 1408.38 251.488C1406.54 252.664 1404.52 253.168 1402.33 253C1398.47 252.832 1395.53 250.647 1393.51 246.446L1361.75 166.793L1366.79 167.55L1338.06 246.446C1336.21 250.647 1333.27 252.832 1329.24 253C1327.05 253.168 1324.95 252.664 1322.93 251.488C1320.92 250.311 1319.57 248.631 1318.9 246.446L1279.33 134.781C1278.82 133.269 1278.57 131.84 1278.57 130.496C1278.57 127.807 1279.49 125.455 1281.34 123.438C1283.19 121.421 1285.71 120.413 1288.9 120.413C1290.92 120.413 1292.77 120.917 1294.45 121.926C1296.13 122.934 1297.31 124.53 1297.98 126.715L1332.01 226.029L1326.71 225.777L1356.21 150.157C1357.89 145.956 1361 143.855 1365.53 143.855C1367.89 143.855 1369.73 144.444 1371.08 145.62C1372.59 146.628 1373.68 148.14 1374.36 150.157L1405.11 225.777L1398.81 226.281L1432.83 126.715C1434.35 122.514 1437.54 120.413 1442.41 120.413Z" fill="#FF4C24"/>
<path d="M870.517 252C867.492 252 864.971 250.992 862.955 248.975C861.106 246.959 860.182 244.522 860.182 241.665V85.6364C860.182 82.7796 861.106 80.427 862.955 78.5785C864.971 76.562 867.408 75.5537 870.264 75.5537H958.74C961.596 75.5537 964.033 76.478 966.05 78.3264C968.066 80.1749 969.074 82.5275 969.074 85.3843C969.074 88.073 968.066 90.3416 966.05 92.1901C964.033 94.0386 961.596 94.9628 958.74 94.9628H879.339L880.851 92.9463V154.702L879.591 151.93H947.397C950.253 151.93 952.69 152.938 954.707 154.955C956.723 156.803 957.731 159.156 957.731 162.012C957.731 164.533 956.723 166.802 954.707 168.818C952.69 170.667 950.253 171.591 947.397 171.591H879.087L880.851 169.322V241.665C880.851 244.522 879.843 246.959 877.826 248.975C875.81 250.992 873.373 252 870.517 252ZM1046.57 241.665C1046.57 244.522 1045.56 246.959 1043.54 248.975C1041.53 250.992 1039.09 252 1036.23 252C1033.38 252 1031.02 250.992 1029.17 248.975C1027.33 246.959 1026.4 244.522 1026.4 241.665V75.5537C1026.4 72.697 1027.33 70.3443 1029.17 68.4959C1031.19 66.4793 1033.63 65.4711 1036.48 65.4711C1039.51 65.4711 1041.95 66.4793 1043.79 68.4959C1045.64 70.3443 1046.57 72.697 1046.57 75.5537V241.665Z" fill="#FF4C24"/>
</svg>
